Coordinates
version=1
nRows=14
nColumns=24
inDegrees=yes

Units are S.I. units (second, meters, Newtons, ...)
Angles are in degrees.

endheader
time	pelvis_tilt	pelvis_list	pelvis_rotation	pelvis_tx	pelvis_ty	pelvis_tz	hip_flexion_r	hip_adduction_r	hip_rotation_r	knee_angle_r	ankle_angle_r	subtalar_angle_r	mtp_angle_r	hip_flexion_l	hip_adduction_l	hip_rotation_l	knee_angle_l	ankle_angle_l	subtalar_angle_l	mtp_angle_l	lumbar_extension	lumbar_bending	lumbar_rotation
      1.17050000	      0.42639497	     -2.75911546	     -2.29520795	     -0.06204171	      1.00543548	      0.35289043	    -17.35178569	      6.57667948	      3.88381301	     -6.20472844	     14.89719677	     -2.97537188	      1.86686622	     19.52558884	     -3.59506685	      0.80921550	      8.43628663	      1.24952424	     -8.65980449	     -3.49916096	     -4.20833407	      0.27914554	      7.64358119
      1.17466667	      0.47369009	     -2.56938685	     -2.39275892	     -0.05630860	      1.00472449	      0.35248316	    -17.53356393	      6.31926338	      3.92381158	     -6.62865318	     15.02617164	     -3.04261969	      1.86078141	     19.60634836	     -3.34453828	      0.97215149	      7.76057734	      1.38393786	     -8.79318751	     -3.46950000	     -4.23877310	      0.06626629	      7.67771173
      1.17883333	      0.52346326	     -2.36222328	     -2.48429549	     -0.05053475	      1.00404545	      0.35202729	    -17.66924996	      6.03422161	      3.79189817	     -7.15914199	     15.31210039	     -2.75660629	      1.82659646	     19.70992796	     -3.06820516	      1.05573913	      6.98625099	      1.51768120	     -8.81349803	     -3.28605978	     -4.23661910	     -0.18774921	      7.89161974
      1.18300000	      0.58204896	     -2.15209337	     -2.56411859	     -0.04473465	      1.00340361	      0.35158020	    -17.83997083	      5.76377353	      3.82283169	     -7.62949704	     15.40118019	     -2.85967115	      1.82220264	     19.80307820	     -2.78649368	      1.19459860	      6.17968608	      1.57146012	     -8.95805165	     -3.24291020	     -4.27559242	     -0.42423732	      7.91902979
      1.18716667	      0.62064586	     -1.92692672	     -2.63726439	     -0.03888703	      1.00275837	      0.35108599	    -17.94351963	      5.47082795	      3.70450137	     -8.20052355	     15.61927569	     -2.65713776	      1.80351600	     19.93824800	     -2.48313881	      1.27020367	      5.30150297	      1.59185457	     -9.03352370	     -2.93253201	     -4.24390702	     -0.70202407	      8.10482372
      1.19133333	      0.69510910	     -1.69969469	     -2.69631941	     -0.03301077	      1.00218919	      0.35059492	    -18.11000498	      5.19241499	      3.72906551	     -8.71693894	     15.66093545	     -2.80144899	      1.80237840	     20.03065465	     -2.17372822	      1.38573720	      4.40927899	      1.55867650	     -9.18641192	     -2.87283484	     -4.28833166	     -0.96063825	      8.12272274
      1.19550000	      0.74240562	     -1.44968437	     -2.74101073	     -0.02705672	      1.00160637	      0.35006831	    -18.23825803	      4.89399743	      3.71567038	     -9.25748931	     15.73089438	     -2.83651499	      1.81142618	     20.15689307	     -1.83516911	      1.49169641	      3.48985008	      1.43454270	     -9.34670890	     -2.65947791	     -4.25658452	     -1.28351870	      8.20846613
      1.19966667	      0.81462845	     -1.22398761	     -2.78963386	     -0.02112764	      1.00109866	      0.34953385	    -18.36168322	      4.62228348	      3.69739568	     -9.85707109	     15.72991582	     -2.96490291	      1.82051053	     20.26623645	     -1.52223971	      1.57045308	      2.53849962	      1.28541646	     -9.51789304	     -2.54927840	     -4.28111738	     -1.54727174	      8.24993016
      1.20383333	      0.88846174	     -0.97573990	     -2.82861943	     -0.01516210	      1.00061595	      0.34895037	    -18.47737595	      4.32932527	      3.68303390	    -10.47567318	     15.69430742	     -3.10608923	      1.82962223	     20.37341950	     -1.18036397	      1.64253837	      1.58152028	      1.09047343	     -9.68414482	     -2.47540133	     -4.32672456	     -1.80333354	      8.28826849
      1.20800000	      0.88101239	     -0.74144778	     -2.86626622	     -0.00914610	      1.00005459	      0.34835589	    -18.46912369	      4.05253617	      3.61161197	    -11.17511757	     15.70850801	     -3.07210112	      1.95054308	     20.54872814	     -0.85306357	      1.83933515	      0.66094928	      0.63426305	    -10.17801297	     -1.86430182	     -4.21507373	     -2.07406648	      8.43183368
      1.21216667	      0.97873909	     -0.47621930	     -2.87615525	     -0.00309493	      0.99968040	      0.34772162	    -18.59203259	      3.75487171	      3.58379319	    -11.83057279	     15.59719777	     -3.27821206	      1.97071405	     20.63121722	     -0.48456358	      1.88829924	     -0.31156276	      0.37967027	    -10.29694914	     -1.77311847	     -4.25079761	     -2.40009801	      8.42514639
      1.21633333	      1.03585611	     -0.21728964	     -2.89598696	      0.00298494	      0.99928587	      0.34709252	    -18.65171223	      3.46510813	      3.59361920	    -12.52331200	     15.41587058	     -3.47480493	      3.30818410	     20.74004494	     -0.12814947	      1.98293001	     -1.24005744	     -0.14562099	    -10.66340958	      2.23548075	     -4.24771531	     -2.70739694	      8.40836749
      1.22050000	      1.07870761	      0.03549027	     -2.89610604	      0.00908258	      0.99891192	      0.34639275	    -18.66347335	      3.18268164	      3.51728585	    -13.28015461	     15.23541230	     -3.60920442	      3.34523099	     20.86744308	      0.22969329	      2.09013421	     -2.18540140	     -0.58220262	    -10.92026213	      2.25020849	     -4.20418441	     -2.98635471	      8.44352494
      1.22466667	      1.12750728	      0.29653613	     -2.89481730	      0.01519807	      0.99859025	      0.34568188	    -18.66141240	      2.89324818	      3.44882915	    -14.07644048	     15.02898692	     -3.75449585	      3.43428125	     20.97641325	      0.59804627	      2.22802352	     -3.11083120	     -1.04707406	    -11.25478747	      2.28828878	     -4.17400699	     -3.28242712	      8.44680753
